<?xml version="1.0" encoding="utf-8"?>
<!-- Generator: Adobe Illustrator 24.0.1, SVG Export Plug-In . SVG Version: 6.00 Build 0)  -->
<svg version="1.1" id="Capa_1" xmlns="http://www.w3.org/2000/svg" xmlns:xlink="http://www.w3.org/1999/xlink" x="0px" y="0px"
	 viewBox="0 0 512 512" style="enable-background:new 0 0 512 512;" xml:space="preserve">
<style type="text/css">
	.st0{fill:#FFFFFF;}
</style>
<g>
	<g>
		<path class="st0" d="M501.9,258.7c-7.9-10.2-19.4-16.7-32.2-18.3c-12.7-1.7-25.2,2-35,9.7l-114,88.4c-11,8.7-24.9,13.5-39,13.5
			h-27.5c20.8-20.4,33.9-48.6,33.9-80c0-8.8-7.2-16-16-16l-176,0v-16c0-8.8-7.2-16-16-16H16c-8.8,0-16,7.2-16,16v224
			c0,8.8,7.2,16,16,16h64c8.8,0,16-7.2,16-16v-16h213.1c17.4,0,34.7-6,48.8-16.8L493.3,326c10.2-7.9,16.8-19.3,18.4-32.2
			C513.2,281.1,509.7,268.6,501.9,258.7z M64,448H32V256h32V448z M479.9,289.8c-0.5,4.3-2.7,8.1-6.2,10.8L338.4,405.9
			c-8.5,6.5-18.9,10.1-29.3,10.1H96V288l158.4,0c-7.4,36.4-39.8,64-78.4,64c-8.8,0-16,7.2-16,16s7.2,16,16,16h105.6
			c21.3,0,42.2-7.3,58.8-20.3l114-88.4c3.2-2.6,7.3-3.6,11.4-3.2c4.3,0.5,8.2,2.7,10.9,6.3C479.3,281.6,480.4,285.7,479.9,289.8z"/>
	</g>
</g>
<g>
	<g>
		<path class="st0" d="M432,32H80c-8.8,0-16,7.2-16,16v128c0,8.8,7.2,16,16,16s16-7.2,16-16V64h96v80c0,5.9,3.3,11.3,8.4,14.1
			c5.2,2.8,11.5,2.5,16.4-0.8l39.1-26.1l39.1,26.1c2.7,1.8,5.8,2.7,8.9,2.7c2.6,0,5.2-0.6,7.6-1.9c5.2-2.8,8.4-8.2,8.4-14.1V64h96
			v144c0,8.8,7.2,16,16,16s16-7.2,16-16V48C448,39.2,440.8,32,432,32z M288,114.1l-23.1-15.4c-5.4-3.6-12.4-3.6-17.8,0L224,114.1V64
			h64V114.1z"/>
	</g>
</g>
</svg>
