<?xml version="1.0" encoding="utf-8"?>
<!-- Generator: Adobe Illustrator 24.0.1, SVG Export Plug-In . SVG Version: 6.00 Build 0)  -->
<svg version="1.1" id="Layer_1" xmlns="http://www.w3.org/2000/svg" xmlns:xlink="http://www.w3.org/1999/xlink" x="0px" y="0px"
	 viewBox="0 0 200 200" style="enable-background:new 0 0 200 200;" xml:space="preserve">
<style type="text/css">
	.st0{fill:#FFC0BB;}
	.st1{fill:#F99893;}
	.st2{fill:#FFFFFF;}
	.st3{fill:#FF5B7E;}
	.st4{fill:#283F56;}
	.st5{fill:#FFE5B6;}
	.st6{fill:#1A1A1A;}
	.st7{fill:#9E9DA2;}
	.st8{fill:#333333;}
	.st9{fill:#D12A56;}
	.st10{fill:#282828;}
	.st11{fill:#DAEEF7;}
	.st12{opacity:0.3;fill:#E87B50;}
	.st13{fill:#F9B7B4;}
	.st14{fill:#FEB546;}
	.st15{fill:#F4A640;}
	.st16{opacity:0.5;fill:#FF5B7E;}
</style>
<g>
	<path class="st0" d="M104.1,35.3c-0.3,0.2-5.5,9.5-5.5,9.5l-7-6.2l6.8-11.3l5.7,3.2V35.3z"/>
	<path class="st1" d="M94.4,33.9c0.9,2.4,2.6,5.7,6.2,7.3c1.5-2.6,3.3-5.8,3.5-5.9v-4.8l-5.7-3.2L94.4,33.9z"/>
	<path class="st2" d="M30.9,129.6c0,0-2-1.4-3.9,3.1c-1.9,4.5,0.6,6.2,0.6,6.2s3.3-2.4,3.2-2.9c0-0.5-0.1-6.2-0.1-6.2L30.9,129.6z"
		/>
	<path class="st3" d="M34.2,128c0,0-1.6-1-3.4,1.8c-0.7,1-1.4,2.6-2,4.9c-2.4,8.6,0,8.6,0,8.6l4-1.7c0,0,3.9-9.9,3.6-10.7
		C36.2,130.2,34.2,128,34.2,128z"/>
	<path class="st4" d="M67.8,105.9H1.3c-0.7,0-1.3,0.6-1.3,1.3l0,0c0,0.7,0.6,1.3,1.3,1.3h66.5c0.7,0,1.3-0.6,1.3-1.3v0
		C69.1,106.5,68.5,105.9,67.8,105.9z"/>
	<rect x="51.5" y="107.2" class="st4" width="4.6" height="12.3"/>
	<path class="st4" d="M18.1,116.2L18.1,116.2c-1.5,0-2.8-1.3-2.8-2.8v-8.6h5.6v8.6C20.9,114.9,19.6,116.2,18.1,116.2z"/>
	<path class="st4" d="M20.1,113.4c0.7,0.8,16.9,16.1,16.9,16.1l-1.4,1.9l-17.2-17L20.1,113.4z"/>
	<path class="st5" d="M167.8,141.6h0.9c1.9,0,3.4,1.5,3.4,3.4v4.4h-4.2c0,0-1.9-3.3-2.6-2.6C164.7,147.6,167.8,141.6,167.8,141.6z"
		/>
	<circle class="st6" cx="57" cy="175" r="24.9"/>
	<path class="st7" d="M68.2,175c0,6.2-5,11.2-11.2,11.2s-11.2-5-11.2-11.2c0-6.2,5-11.2,11.2-11.2S68.2,168.8,68.2,175z"/>
	
		<ellipse transform="matrix(2.497684e-02 -0.9997 0.9997 2.497684e-02 -4.2307 345.6621)" class="st6" cx="175.1" cy="175" rx="24.9" ry="24.9"/>
	<path class="st7" d="M186.3,175c0,6.2-5,11.2-11.2,11.2c-6.2,0-11.2-5-11.2-11.2c0-6.2,5-11.2,11.2-11.2
		C181.3,163.8,186.3,168.8,186.3,175z"/>
	<path class="st4" d="M86.7,171.3H30.5c-4.3,0-7.8-3.5-7.8-7.8v0c0-4.3,3.5-7.8,7.8-7.8h56.2V171.3z"/>
	<path class="st3" d="M96.7,126.3H50.3c-2.6,0-4.7-2.1-4.7-4.7v0c0-2.6,2.1-4.7,4.7-4.7h46.4c2.6,0,4.7,2.1,4.7,4.7v0
		C101.4,124.2,99.3,126.3,96.7,126.3z"/>
	<path class="st8" d="M99.4,125.4c0,0-4.5,2.5-8.1,12.8c-3.6,10.3-2.8,25.9,19.6,27.1h34.5l3.4-6c0,0-2.9-41.1-9.6-59.4h11.3
		c0,0,3.4,35,15.5,39.7c1.2,0.5,1.9,1.6,1.9,2.8v6.9l-18.2,23.5h-60c0,0-14.1,1.2-17.5-22.7l-40.7-0.6c-2.2,0-3.8-2.2-3.2-4.3
		c1.3-4.1,3.9-10,8.5-11.2C44.3,132,99.4,125.4,99.4,125.4z"/>
	<path class="st4" d="M33.7,135.3c0.1,0.1,0.1,0.2,0.2,0.3h58.4l0.6-1.4c3.2-7,6.5-8.9,6.5-8.9H39.5
		C34.4,125.4,31.1,130.9,33.7,135.3z"/>
	<path class="st3" d="M30.2,155.6h43.7c4.7,0,8-4.6,6.4-9.1c-2.3-6.7-7.7-13.9-21-15.1c-17.2-1.6-27.6,12.1-31.7,19.8
		C26.5,153.2,27.9,155.6,30.2,155.6z"/>
	<path class="st3" d="M149.7,172.9l13.4-21.7c0,0,6.9-5.3,20.5-2.6c8.4,1.7,13.4,7.3,16,11.4c1.2,1.9-0.1,4.3-2.3,4.3h-20.6
		c-6.3,0-12.3,2.9-16.3,7.8l-0.5,0.7c-2.9,3.6-7.2,5.6-11.8,5.6l0,0c-3.1,0-6.1-1.2-8.3-3.3l-2.3-2.2H149.7z"/>
	<path class="st3" d="M151.5,78.3c0-1.8-1.7-3.2-3.5-2.8c-7.6,1.5-15.6,7.6-15.6,14.9c0,7.3,8,13.4,15.6,14.9c1.8,0.4,3.5-1,3.5-2.8
		V78.3z"/>
	<path class="st2" d="M151.5,78.3v23.9c5.1-1.6,8.8-6.4,8.8-12C160.2,84.7,156.6,79.9,151.5,78.3z"/>
	<rect x="4.9" y="70.2" class="st3" width="59.2" height="35.7"/>
	<rect x="3.7" y="65.7" class="st9" width="61.8" height="4.5"/>
	<path class="st10" d="M19.3,113.2c0,0.7-0.5,1.2-1.2,1.2c-0.7,0-1.2-0.5-1.2-1.2c0-0.7,0.5-1.2,1.2-1.2
		C18.8,111.9,19.3,112.5,19.3,113.2z"/>
	<path class="st8" d="M70.3,142.3H42.5c-0.5,0-0.8-0.4-0.8-0.8l0,0c0-0.5,0.4-0.8,0.8-0.8h27.8c0.5,0,0.8,0.4,0.8,0.8v0
		C71.1,141.9,70.7,142.3,70.3,142.3z"/>
	<path class="st8" d="M70.3,146.4H42.5c-0.5,0-0.8-0.4-0.8-0.8l0,0c0-0.5,0.4-0.8,0.8-0.8h27.8c0.5,0,0.8,0.4,0.8,0.8l0,0
		C71.1,146.1,70.7,146.4,70.3,146.4z"/>
	<polygon class="st0" points="121.6,143.6 119.5,166.7 117.6,170.1 114.3,167.7 114.3,143 	"/>
	<polygon class="st0" points="134.1,141.4 133,166.7 131.2,170.1 127.9,167.7 127.9,143 	"/>
	<g>
		<path class="st11" d="M141.5,171.6l-14.4,0c-0.1,0-0.2-0.1-0.2-0.2l0-1.1c0-0.1,0.1-0.2,0.2-0.2l14.4,0c0.1,0,0.2,0.1,0.2,0.2
			l0,1.1C141.7,171.5,141.6,171.6,141.5,171.6z"/>
		<path class="st3" d="M127.6,165.7l-0.5,4.1c-0.1,0.5,0.2,1,0.6,1l13,0c0.3,0,0.7-0.2,0.8-0.6c0.2-0.4,0.2-1-0.4-1.8
			c-1.2-1.6-5-2-6.9-3.4l-6.1,0C127.9,164.9,127.7,165.2,127.6,165.7z"/>
		<g>
			<path class="st11" d="M133.4,167.3L133.4,167.3c-0.1-0.1-0.1-0.2-0.1-0.3c0.3-0.6,1-1.9,2.7-1.7c0.1,0,0.2,0.1,0.1,0.3l0,0
				c0,0.1-0.1,0.2-0.2,0.2c-1.5-0.2-2.1,1-2.3,1.4C133.6,167.3,133.5,167.3,133.4,167.3z"/>
		</g>
		<g>
			<path class="st11" d="M134.8,167.8L134.8,167.8c-0.1-0.1-0.1-0.2-0.1-0.3c0.3-0.6,1-1.9,2.7-1.7c0.1,0,0.2,0.1,0.1,0.3l0,0
				c0,0.1-0.1,0.2-0.2,0.2c-1.5-0.2-2.1,1-2.3,1.4C135,167.8,134.9,167.8,134.8,167.8z"/>
		</g>
		<g>
			<path class="st11" d="M136,168.3L136,168.3c-0.1-0.1-0.1-0.2-0.1-0.3c0.3-0.6,1-1.9,2.7-1.7c0.1,0,0.2,0.1,0.1,0.3l0,0
				c0,0.1-0.1,0.2-0.2,0.2c-1.5-0.2-2.1,1-2.3,1.4C136.2,168.3,136.1,168.3,136,168.3z"/>
		</g>
		<path class="st12" d="M131.2,170.8c-1-3.3-2.8-3.7-3.8-3.6l-0.3,2.7c-0.1,0.5,0.2,1,0.6,1L131.2,170.8z"/>
	</g>
	<path class="st8" d="M70.3,150.6H42.5c-0.5,0-0.8-0.4-0.8-0.8l0,0c0-0.5,0.4-0.8,0.8-0.8h27.8c0.5,0,0.8,0.4,0.8,0.8v0
		C71.1,150.2,70.7,150.6,70.3,150.6z"/>
	<path class="st10" d="M125,109.6c1.7,0.1,8.8,3,9.7,8.1c0.9,5.1,0,44.8,0,44.8h-7.9c0,0-6.3-31.4-6.3-32.3
		C120.5,129.2,125,109.6,125,109.6z"/>
	<path class="st8" d="M71.1,98.2c0.1,0.4-1.7,17.9,16.2,19.4c17.9,1.4,28.2,3.8,28.2,3.8s-2.5,39.7-2.4,41.6c0,0,6.2,1,8.8,0.7
		c0,0,14-44,9.9-53c-4.1-9-36.4-12.4-36.4-12.4H71.1z"/>
	<path class="st13" d="M100.8,66.6c0,0,0.2,8.5,0.8,9.3c0.6,0.8,27.7,11.1,27.7,11.1l-4.4,5l-20-5.7c0,0-14.3-5.1-14.1-5.5
		c0.1-0.4,0.9-5.6,1.6-7.7c0.7-2.1,3.4-6.7,3.4-6.7L100.8,66.6z"/>
	<path class="st14" d="M90.8,36.8c0,0-18.1,6.6-20.2,42.3l-0.9,20.3c0,0,20.6,8.8,32.4,1.2c0,0,1.2-36.3,2.4-49.5
		c0.2-2.2-0.7-4.4-2.4-5.9C98.2,42,91.5,36.5,90.8,36.8z"/>
	<path class="st0" d="M84.5,62.2c0,0-4.4,18.3,1.8,23.3c3.9,3.1,39.8,9.3,39.8,9.3l2.3-5.6c0,0-28.6-10.2-30.4-11.4
		C96.4,76.6,99.3,61,99.3,61L84.5,62.2z"/>
	<path class="st15" d="M98.5,43.5c-1.6-1.4-3.9-1.8-5.9-1c-2.8,1.2-6.7,4.5-8.9,13.8l-1.8,8.1c0,0,13.4,3.3,17.6,3.1l2.1-12.5
		C101.6,55,102.8,47.2,98.5,43.5z"/>
	<path class="st8" d="M54.5,65.7h-11l-20.6,40.2c1.8,0,7.4,0,11,0L54.5,65.7L54.5,65.7z"/>
	<g>
		<path class="st5" d="M40.7,91.1l-7.4-3.8c-1.1-0.6-1.6-2-1-3.1l2.2-4.2c0.6-1.1,2-1.6,3.1-1l7.4,3.8c1.1,0.6,1.6,2,1,3.1l-2.2,4.2
			C43.2,91.2,41.8,91.7,40.7,91.1z M36.9,80.2c-0.5-0.2-1-0.1-1.3,0.4l-2.2,4.2c-0.2,0.5-0.1,1,0.4,1.3l7.4,3.8
			c0.5,0.2,1,0.1,1.3-0.4l2.2-4.2c0.2-0.5,0.1-1-0.4-1.3L36.9,80.2z"/>
	</g>
	<path class="st0" d="M96.7,23.4c0.9,2,0.2,4.2-1.7,5c-1.8,0.8-4-0.2-5-2.2c-0.9-2-0.2-4.2,1.7-5C93.6,20.4,95.8,21.4,96.7,23.4z"/>
	<g>
		<path class="st11" d="M127.6,171.6l-14.4,0c-0.1,0-0.2-0.1-0.2-0.2l0-1.1c0-0.1,0.1-0.2,0.2-0.2l14.4,0c0.1,0,0.2,0.1,0.2,0.2
			l0,1.1C127.8,171.5,127.7,171.6,127.6,171.6z"/>
		<path class="st3" d="M113.7,165.7l-0.5,4.1c-0.1,0.5,0.2,1,0.6,1l13,0c0.3,0,0.7-0.2,0.8-0.6c0.2-0.4,0.2-1-0.4-1.8
			c-1.2-1.6-5-2-6.9-3.4l-6.1,0C114,164.9,113.7,165.2,113.7,165.7z"/>
		<g>
			<path class="st11" d="M119.5,167.3L119.5,167.3c-0.1-0.1-0.1-0.2-0.1-0.3c0.3-0.6,1-1.9,2.7-1.7c0.1,0,0.2,0.1,0.1,0.3l0,0
				c0,0.1-0.1,0.2-0.2,0.2c-1.5-0.2-2.1,1-2.3,1.4C119.7,167.3,119.6,167.3,119.5,167.3z"/>
		</g>
		<g>
			<path class="st11" d="M120.9,167.8L120.9,167.8c-0.1-0.1-0.1-0.2-0.1-0.3c0.3-0.6,1-1.9,2.7-1.7c0.1,0,0.2,0.1,0.1,0.3l0,0
				c0,0.1-0.1,0.2-0.2,0.2c-1.5-0.2-2.1,1-2.3,1.4C121,167.8,121,167.8,120.9,167.8z"/>
		</g>
		<g>
			<path class="st11" d="M122.1,168.3L122.1,168.3c-0.1-0.1-0.1-0.2-0.1-0.3c0.3-0.6,1-1.9,2.7-1.7c0.1,0,0.2,0.1,0.1,0.3l0,0
				c0,0.1-0.1,0.2-0.2,0.2c-1.5-0.2-2.1,1-2.3,1.4C122.3,168.3,122.2,168.3,122.1,168.3z"/>
		</g>
		<path class="st12" d="M117.3,170.8c-1-3.3-2.8-3.7-3.8-3.6l-0.3,2.7c-0.1,0.5,0.2,1,0.6,1L117.3,170.8z"/>
	</g>
	<path class="st4" d="M151.8,179H81.5c-2.4,0-4.3-1.9-4.3-4.3l0,0c0-2.4,1.9-4.3,4.3-4.3h70.2c2.4,0,4.3,1.9,4.3,4.3l0,0
		C156.1,177,154.1,179,151.8,179z"/>
	<path class="st2" d="M110.5,32.1l-0.7,2.8c0,0-6.2-5-6.2-5.1c0-0.1,1.1-1.9,1.6-1.7c0.5,0.1,4.3,1.6,4.3,1.7
		C109.5,29.8,110.5,32.1,110.5,32.1z"/>
	<path class="st0" d="M106.1,30.2c1.9,1.8,3.7,2.2,4.6,2.3c0.3-1,0.4-1.6,0.4-1.6s2.1-0.6,2.8-1.4c0,0-2.1-2.9-2.1-4.2
		c0-1.4,2.1-9.5-3.8-14.1c-5.8-4.6-9.3,3.7-9.3,3.7l-2.5,8.5l-3.4,5.2c0,0,0.8,4.7,5.5,8c4.6,3.3,9.8,2,10.6,1.6
		c0.2-0.1,0.8-2.1,1.4-4C107.2,33,106.1,30.2,106.1,30.2z"/>
	<path class="st8" d="M107.2,24.9c0.2,0.4,0.8,0.6,1.3,0.3c0.4-0.2,0.6-0.8,0.4-1.2c-0.2-0.4-0.8-0.6-1.3-0.3
		C107.1,24,107,24.5,107.2,24.9z"/>
	<path class="st8" d="M105.9,23.3c0.3-0.3,0.6-0.5,1-0.7c0.3-0.2,0.7-0.4,1-0.5c0.4-0.1,0.7-0.2,1.1-0.2l0.1,0c0,0,0.1,0,0.1,0
		l0.3,0c0.2,0,0.4,0.1,0.6,0.1c-0.2-0.1-0.3-0.2-0.5-0.3c-0.2-0.1-0.4-0.2-0.6-0.2c-0.4-0.1-0.9-0.1-1.3,0.1
		c-0.4,0.1-0.8,0.4-1.2,0.7C106.3,22.6,106,22.9,105.9,23.3z"/>
	<path class="st9" d="M99.6,18.8c0,0-2.1,1.7-2.6,9.7c-0.4,6.2-5.6,7.2-5.5,7.2c0.1,0,1.5-13.6,1.7-14.1c0.3-0.5,2-5.6,2.3-5.8
		c0.3-0.1,3.8,2.2,4,2.2C99.8,18.1,99.6,18.8,99.6,18.8z"/>
	<path class="st3" d="M116.1,13.1c0,0-2.1-13.7-19.7-13c-17.6,0.7-17,21.2-17,21.2s-0.7,14.8,9.8,14.8c0,0,7.1,0.5,7.1-8.4
		c0-8.6,2.6-8.6,2.6-8.6L116.1,13.1z"/>
	<path class="st16" d="M83.2,7.2c-4.1,6.2-3.8,14-3.8,14s-0.7,14.8,9.8,14.8c0,0,6.9,0.4,7.1-8.1C86.6,24.5,83.5,16,83.2,7.2z"/>
	<path class="st9" d="M90.9,30.5c0,1.1-0.9,2-2,2c-1.1,0-2-0.9-2-2c0-1.1,0.9-2,2-2C90,28.5,90.9,29.4,90.9,30.5z"/>
	<path class="st6" d="M98.9,19c0.5-0.2,14-1.2,20.3-1.7c1.1-0.1,1.5-1.5,0.6-2.1l-3.7-2.6L98.9,19z"/>
	<path class="st4" d="M98.9,19c0.6-0.2,13.7-4.5,17.5-5.8c0.5-0.2,0.8-0.8,0.6-1.3l-0.5-1.2c-0.2-0.5-0.9-0.8-1.4-0.5L98.9,19z"/>
	<path class="st0" d="M125.2,88.6c0,0,4.4-2.7,6.4-2.7s6,1.2,6,3.1s-1.2,3.1-1.2,3.1l-3.9,3.4c0,0-1.9,1.4-2.6,0.7
		c-0.8-0.8-3.1,0.2-6.9-1.9c-3.8-2.1-0.2-3.3,0.3-3.9C123.8,89.8,125.2,88.6,125.2,88.6z"/>
	<path class="st6" d="M137.5,91.5c0,2.3-1.8,4.1-4.1,4.1c-2.3,0-4.1-1.8-4.1-4.1c0-2.3,1.8-4.1,4.1-4.1
		C135.6,87.4,137.5,89.2,137.5,91.5z"/>
</g>
</svg>
