<?xml version="1.0" encoding="utf-8"?>
<!-- Generator: Adobe Illustrator 24.0.1, SVG Export Plug-In . SVG Version: 6.00 Build 0)  -->
<svg version="1.1" id="Layer_1" xmlns="http://www.w3.org/2000/svg" xmlns:xlink="http://www.w3.org/1999/xlink" x="0px" y="0px"
	 viewBox="0 0 3500 2000" style="enable-background:new 0 0 3500 2000;" xml:space="preserve">
<style type="text/css">
	.st0{opacity:0.9;fill:#4188E4;}
	.st1{fill:#CAF0FF;}
	.st2{opacity:0.3;fill:#EBEDED;}
	.st3{opacity:0.3;fill:#4188E4;}
	.st4{opacity:0.2;}
	.st5{fill:#4188E4;}
	.st6{fill:#FF5B7E;}
	.st7{fill:#70C0FD;}
	.st8{fill:#07085B;}
	.st9{fill:#FFC0BB;}
	.st10{fill:#F99893;}
	.st11{fill:#FFFFFF;}
	.st12{fill:#283F56;}
	.st13{fill:#FFE5B6;}
	.st14{fill:#1A1A1A;}
	.st15{fill:#9E9DA2;}
	.st16{fill:#333333;}
	.st17{fill:#D12A56;}
	.st18{fill:#282828;}
	.st19{fill:#DAEEF7;}
	.st20{opacity:0.3;fill:#E87B50;}
	.st21{fill:#F9B7B4;}
	.st22{fill:#FEB546;}
	.st23{fill:#F4A640;}
	.st24{opacity:0.8;fill:#FFFFFF;}
	.st25{opacity:0.5;fill:#FF5B7E;}
</style>
<g>
	<path class="st0" d="M2801.8,1970.9v-173.2h-75.9v34.6h-26.6V1763h-97.3v69.3h-21.3V1779h-21.3v-319.7h-26.6v-202.5h-129.2
		l1.3,244.1l-86.2,1v-195.5h-133.6v207.8l-40,1.3v-209.5h-46.6v-89.3h-28v-60h-109.2v60h-28v89.3h-46.6v113.5l-21.5,1.3l-6.5-336.2
		h-143.9v178.8l-50.6,1.3V985.4h-17.3v-59h-151.9v59h-17.3v440h-32v-180.7h-26.6v-57.4h-38.6v-167.6h-56v167.6h-38.6v57.4H1259
		v198.7h-18.7l-14.7-0.2v-230.2l-394.4,3.8v518.4H798v-67.9H678.1v130.6h-34.6v-48h-75.9v82.6v14.7h-75.9v123.9H2801.8z"/>
	<path class="st1" d="M2103.2,173.3c-42.9,0-79.4,27.2-93.3,65.3c-9.8-5.5-21.1-8.6-33.1-8.6c-37.6,0-68.1,30.5-68.1,68.1
		c0,2.2,0.1,4.4,0.3,6.6h443.1c-5.6-24.3-27.3-42.4-53.3-42.4c-4.8,0-9.4,0.6-13.8,1.8c-12.8-27.4-40.7-46.4-72.9-46.4
		c-8.3,0-16.4,1.3-24,3.6C2170.9,192.6,2139.3,173.3,2103.2,173.3L2103.2,173.3z"/>
	<path class="st1" d="M717.8,907.2c3-12.8,14.4-22.4,28.2-22.4c2.5,0,5,0.3,7.3,0.9c6.8-14.5,21.5-24.6,38.6-24.6
		c4.4,0,8.7,0.7,12.7,1.9c9.2-15.2,25.9-25.4,45-25.4c22.7,0,42,14.4,49.3,34.6c5.2-2.9,11.2-4.5,17.5-4.5c19.9,0,36,16.1,36,36
		c0,1.2-0.1,2.3-0.2,3.5H717.8z"/>
	<path class="st1" d="M1522.6,559.6c3.6-15.6,17.5-27.2,34.2-27.2c3.1,0,6,0.4,8.8,1.1c8.2-17.6,26.1-29.7,46.7-29.7
		c5.3,0,10.5,0.8,15.4,2.3c11.1-18.4,31.4-30.8,54.5-30.8c27.5,0,50.9,17.4,59.8,41.9c6.3-3.5,13.5-5.5,21.2-5.5
		c24.1,0,43.6,19.5,43.6,43.6c0,1.4-0.1,2.8-0.2,4.2H1522.6z"/>
	<path class="st1" d="M2321.7,727.2c3.6-15.6,17.5-27.2,34.2-27.2c3.1,0,6,0.4,8.8,1.1c8.2-17.6,26.1-29.7,46.7-29.7
		c5.3,0,10.5,0.8,15.4,2.3c11.1-18.4,31.4-30.8,54.5-30.8c27.5,0,50.9,17.4,59.8,41.9c6.3-3.5,13.5-5.5,21.2-5.5
		c24.1,0,43.6,19.5,43.6,43.6c0,1.4-0.1,2.8-0.2,4.2H2321.7z"/>
	<path class="st1" d="M434,1099.8c3.6-15.6,17.5-27.2,34.2-27.2c3.1,0,6,0.4,8.8,1.1c8.2-17.6,26.1-29.7,46.7-29.7
		c5.3,0,10.5,0.8,15.4,2.3c11.1-18.4,31.4-30.8,54.5-30.8c27.5,0,50.9,17.4,59.8,41.9c6.3-3.5,13.5-5.5,21.2-5.5
		c24.1,0,43.6,19.5,43.6,43.6c0,1.4-0.1,2.8-0.2,4.2H434z"/>
	<g>
		<g>
			<path class="st1" d="M956.9,955l-9.7-7.8c0.2-0.3,6.1-7.6,17.5-20.1l9.2,8.4C962.9,947.6,957,954.9,956.9,955z"/>
		</g>
		<g>
			<path class="st1" d="M2376.1,921.2c-12.9-12.4-26-24.6-39-36.3l8.3-9.3c13.1,11.8,26.3,24.1,39.3,36.6L2376.1,921.2z
				 M1010.8,897.1l-8.8-8.9c12.5-12.4,25.7-24.8,39.2-36.9l8.3,9.3C1036.2,872.6,1023.2,884.9,1010.8,897.1z M2297,849.9
				c-13.7-11.5-27.6-22.8-41.3-33.5l7.7-9.8c13.9,10.8,27.9,22.2,41.7,33.8L2297,849.9z M1089.9,825.9l-7.9-9.6
				c13.8-11.4,28-22.6,42.3-33.2l7.5,10C1117.6,803.5,1103.5,814.6,1089.9,825.9z M2213.1,784.4c-14.5-10.4-29.2-20.6-43.8-30.2
				l6.9-10.4c14.7,9.7,29.6,19.9,44.2,30.5L2213.1,784.4z M1175,762l-7-10.3c14.9-10.1,30-20,45.1-29.2l6.5,10.6
				C1204.7,742.3,1189.7,752,1175,762z M2124.2,726c-15.3-9.1-30.9-17.9-46.3-26.1l5.8-11c15.6,8.3,31.3,17.1,46.9,26.4L2124.2,726z
				 M1265.6,706.4l-6-10.9c15.8-8.6,31.9-16.9,47.9-24.6l5.4,11.2C1297.1,689.7,1281.2,697.8,1265.6,706.4z M2030.3,676.2
				c-16.1-7.5-32.5-14.6-48.7-21.1l4.6-11.6c16.4,6.6,33,13.7,49.4,21.3L2030.3,676.2z M1361.4,660.4l-4.8-11.5
				c16.6-6.9,33.6-13.4,50.3-19.2l4.1,11.8C1394.5,647.2,1377.8,653.5,1361.4,660.4z M1931.7,636.9c-16.9-5.6-34-10.7-50.9-15.2
				l3.2-12c17.1,4.5,34.5,9.7,51.6,15.4L1931.7,636.9z M1461.6,625.5l-3.4-12c17.3-4.9,34.9-9.2,52.3-13l2.6,12.2
				C1496,616.4,1478.7,620.7,1461.6,625.5z M1829.2,609.8c-17.4-3.4-35-6.3-52.4-8.5l1.6-12.4c17.7,2.3,35.6,5.2,53.2,8.6
				L1829.2,609.8z M1565.3,603.3l-1.8-12.3c17.8-2.6,35.8-4.6,53.5-6l1,12.4C1600.6,598.8,1582.8,600.8,1565.3,603.3z M1724,596.4
				c-17.6-1-35.5-1.5-53-1.3l-0.1-12.5c17.8-0.2,36,0.3,53.9,1.3L1724,596.4z"/>
		</g>
		<g>
			<path class="st1" d="M2432.3,977.5c-6-6.3-12.2-12.6-18.3-18.8l8.9-8.7c6.1,6.2,12.3,12.6,18.4,19L2432.3,977.5z"/>
		</g>
	</g>
	<path class="st2" d="M2682.2,493.4c-25,7.9-48.7,19.9-73.8,27.3c-49.3,14.4-103.9,10.1-150.4-12c-52.2-24.8-94.1-70.8-149.9-85.9
		c-40.7-11-83.9-4.2-125.8-8.4c-41.9-4.3-88-25.6-98.1-66.5c-1.9-7.7-2.3-16.1,1.1-23.3c7.2-15,27.1-17.7,43.7-18.5
		c42.5-1.9,85.2-3.9,127.3,1.6c53.6,7,107.8,26.1,160.6,13.9c16.1-3.7,31.5-10.2,47.5-14.4c37.9-9.8,77.6-5.7,116.4,1.4
		c-51-67.7-118.4-131.8-210.1-188c-16.7-10.2-33.3-19.6-49.9-28.1c-34,21.5-65.9,47.3-102.8,63.3c-53.4,23-113.5,23.7-171.6,20.4
		c-34.7-2-72.9-4.2-100.5,16.8c-20.2,15.4-30.6,40.7-49.4,57.8c-22.7,20.7-54.6,27.1-84.4,34.6c-37.9,9.6-76.1,23.1-104.6,49.8
		c-28.5,26.7-44.9,69.4-31.2,106c17.5,46.4,73.4,64.7,122.8,68.9c63.2,5.4,128.3-2.3,189.2,15.4c41.4,12,78.6,35,117.2,54.1
		c66.9,33,138.8,54.4,210.9,73.3c53.5,14,108.1,26.9,163.4,25.3c41-1.2,81.4-10.3,122.4-12.5c43.5-2.3,88.8,2.9,129.3-12.9
		C2718.5,601.1,2703.2,547.3,2682.2,493.4z"/>
	<path class="st2" d="M1529.4,389.4c-6.9-3.6-15.3-2.2-23-1.3c-28.3,3.4-57.4-0.3-83.8-10.8c-13.5-5.3-26.4-12.4-39.2-19.4
		c-34.2,35.2-65.2,70-92.5,102.5c-4.8,5.7-9.8,11.3-15,16.6c5,2.2,10,4.5,14.9,7c14.1,7.2,29.1,18,30,33.8
		c0.9,15.4-12.3,27.7-25.3,35.8c-35.8,22.2-80.9,31.4-108.1,63.7c-24,28.4-30.7,71.6-62.3,91.1c-14.1,8.7-31.2,11.1-47.7,12.3
		c-55.1,4-112.7-2.8-163.7,18.4c-11.2,4.6-21.8,10.6-33.3,14.4c-15,5-31,6.3-46.8,7.3c-72.2,4.3-144.8,1.8-216.5-7.3
		c-51.2,28.9-100.2,64.3-145.1,109.1c3.1,1.4,6.2,2.9,9.3,4.3c31.9,14.8,64.4,29.7,99.2,35.2c32,5,64.7,1.9,97-1.3
		c39.3-3.9,79-7.8,116.7-19.6c41.6-13,80.1-35.3,122.5-45.1c46.7-10.9,95.3-6.2,143.2-4.6c63.6,2.1,128.5-1.5,188.4-22.9
		c60-21.3,115-62.2,142.9-119.4c14.7-30.3,22.2-65.1,45.1-89.7c23.8-25.5,60.1-35.5,86-58.7c38.5-34.4,46.4-98.1,17.6-140.9
		C1537.1,395.8,1533.9,391.7,1529.4,389.4z"/>
	<rect x="1727" y="1125.2" class="st3" width="116.3" height="15.6"/>
	<g class="st4">
		<rect x="863.9" y="1254.2" class="st5" width="46.7" height="60.4"/>
		<rect x="863.9" y="1448.6" class="st5" width="46.7" height="60.4"/>
		<rect x="935.6" y="1254.2" class="st5" width="46.7" height="60.4"/>
		<rect x="1007.3" y="1254.2" class="st5" width="46.7" height="60.4"/>
		<rect x="1007.3" y="1580.2" class="st5" width="46.7" height="60.4"/>
		<rect x="935.6" y="1350.7" class="st5" width="46.7" height="60.4"/>
		<rect x="935.6" y="1683.4" class="st5" width="46.7" height="60.4"/>
		<rect x="935.6" y="1448.6" class="st5" width="46.7" height="60.4"/>
		<rect x="1068.9" y="1448.6" class="st5" width="46.7" height="60.4"/>
		<rect x="1068.9" y="1683.4" class="st5" width="46.7" height="60.4"/>
		<rect x="1127.6" y="1254.2" class="st5" width="46.7" height="60.4"/>
		<rect x="1505.9" y="1014.5" class="st5" width="25.9" height="33.6"/>
		<rect x="1559.9" y="1014.5" class="st5" width="25.9" height="33.6"/>
		<rect x="1505.9" y="1073.7" class="st5" width="25.9" height="33.6"/>
		<rect x="1613.8" y="1073.7" class="st5" width="25.9" height="33.6"/>
		<rect x="1559.9" y="1133" class="st5" width="25.9" height="33.6"/>
		<rect x="1613.8" y="1133" class="st5" width="25.9" height="33.6"/>
		<rect x="1505.9" y="1192.2" class="st5" width="25.9" height="33.6"/>
		<rect x="1613.8" y="1192.2" class="st5" width="25.9" height="33.6"/>
		<rect x="1505.9" y="1251.5" class="st5" width="25.9" height="33.6"/>
		<rect x="1559.9" y="1251.5" class="st5" width="25.9" height="33.6"/>
		<rect x="1613.8" y="1310.8" class="st5" width="25.9" height="33.6"/>
		<rect x="1505.9" y="1429.3" class="st5" width="25.9" height="33.6"/>
		<rect x="1925.9" y="1330.2" class="st5" width="25.9" height="33.6"/>
		<rect x="2069.9" y="1330.2" class="st5" width="25.9" height="33.6"/>
		<rect x="1996" y="1239" class="st5" width="25.9" height="33.6"/>
		<rect x="2412.7" y="1289.7" class="st5" width="25.9" height="33.6"/>
		<rect x="2499.4" y="1289.7" class="st5" width="25.9" height="33.6"/>
		<rect x="2499.4" y="1349.5" class="st5" width="25.9" height="33.6"/>
		<rect x="2412.7" y="1409.4" class="st5" width="25.9" height="33.6"/>
		<rect x="2499.4" y="1409.4" class="st5" width="25.9" height="33.6"/>
		<rect x="2412.7" y="1469.2" class="st5" width="25.9" height="33.6"/>
		<rect x="2456" y="1529.1" class="st5" width="25.9" height="33.6"/>
		<rect x="2499.4" y="1529.1" class="st5" width="25.9" height="33.6"/>
		<rect x="2499.4" y="1588.9" class="st5" width="25.9" height="33.6"/>
		<rect x="2412.7" y="1648.8" class="st5" width="25.9" height="33.6"/>
		<rect x="2456" y="1648.8" class="st5" width="25.9" height="33.6"/>
		<rect x="2051.7" y="1239" class="st5" width="25.9" height="33.6"/>
		<rect x="1925.9" y="1397.8" class="st5" width="25.9" height="33.6"/>
		<rect x="1973.9" y="1397.8" class="st5" width="25.9" height="33.6"/>
		<rect x="1925.9" y="1465.3" class="st5" width="25.9" height="33.6"/>
		<rect x="2021.9" y="1465.3" class="st5" width="25.9" height="33.6"/>
		<rect x="2069.9" y="1465.3" class="st5" width="25.9" height="33.6"/>
		<rect x="1973.9" y="1532.9" class="st5" width="25.9" height="33.6"/>
		<rect x="1925.9" y="1600.4" class="st5" width="25.9" height="33.6"/>
		<rect x="2021.9" y="1600.4" class="st5" width="25.9" height="33.6"/>
		<rect x="2069.9" y="1600.4" class="st5" width="25.9" height="33.6"/>
		<rect x="1925.9" y="1735.5" class="st5" width="25.9" height="33.6"/>
		<rect x="2021.9" y="1735.5" class="st5" width="25.9" height="33.6"/>
		<rect x="1127.6" y="1580.2" class="st5" width="46.7" height="60.4"/>
		<rect x="1277.6" y="1270" class="st5" width="143.1" height="15.6"/>
		<rect x="1727" y="1225.9" class="st5" width="116.3" height="15.6"/>
		<rect x="1727" y="1259.5" class="st5" width="116.3" height="15.6"/>
		<rect x="1727" y="1360.2" class="st5" width="116.3" height="15.6"/>
		<rect x="2193" y="1330.2" class="st5" width="116.3" height="15.6"/>
		<rect x="2193" y="1363.8" class="st5" width="116.3" height="15.6"/>
		<rect x="2193" y="1430.9" class="st5" width="116.3" height="15.6"/>
		<rect x="2193" y="1531.7" class="st5" width="116.3" height="15.6"/>
		<rect x="2193" y="1598.8" class="st5" width="116.3" height="15.6"/>
		<rect x="2193" y="1666" class="st5" width="116.3" height="15.6"/>
		<rect x="2193" y="1733.1" class="st5" width="116.3" height="15.6"/>
		<rect x="1727" y="1461" class="st5" width="116.3" height="15.6"/>
		<rect x="1727" y="1528.1" class="st5" width="116.3" height="15.6"/>
		<rect x="1277.6" y="1314.7" class="st5" width="143.1" height="15.6"/>
		<rect x="1277.6" y="1359.3" class="st5" width="143.1" height="15.6"/>
		<rect x="1277.6" y="1448.7" class="st5" width="143.1" height="15.6"/>
		<rect x="1277.6" y="1538" class="st5" width="143.1" height="15.6"/>
		<rect x="1277.6" y="1582.7" class="st5" width="143.1" height="15.6"/>
		<rect x="1277.6" y="1672" class="st5" width="143.1" height="15.6"/>
		<rect x="1277.6" y="1761.3" class="st5" width="143.1" height="15.6"/>
	</g>
	<rect x="1727" y="1158.8" class="st3" width="116.3" height="15.6"/>
	<path class="st6" d="M898.2,1046.7l33.6,66.7l35.3-65.8c10.4-24.1-6.3-51.7-32.6-52.8c-0.4,0-0.8,0-1.2,0s-0.8,0-1.2,0
		C905.8,995.2,888.4,1022.3,898.2,1046.7z M915.4,1032.8c0.1-9.6,8-17.3,17.6-17.2c9.6,0.1,17.3,8,17.2,17.6
		c-0.1,9.6-8,17.3-17.6,17.2C923,1050.3,915.3,1042.4,915.4,1032.8z"/>
	<g>
		<path class="st7" d="M421.3,1685c14.1-2.8,25-14.1,27.6-28.4c7.4-40.5,30.8-111.7,104-113c86.2-1.5,101.5,63.1,99.5,110.1
			c-0.5,11.8,9.1,21.5,20.8,21c25.5-1.1,62.7,4.9,62.7,48.3c0,0,23.1,81.9-42.5,101.6c-65.6,19.7-97.2-6.2-125.3,20.1
			c-25.9,24.3-110.6,49.6-151.5-5.8c-6.4-8.7-14.3-16-23.3-21.8c-15.3-9.9-35.5-34.1-18.7-89.4c6.6-21.5,24-37.9,45.6-42.5
			C420.5,1685.1,420.9,1685,421.3,1685z"/>
		<path class="st8" d="M581.1,1756.1c-5.9,4.6-11.6,9.8-16.7,15.7c-1.3,1.5-2.5,3-3.8,4.6c0.4-7.3,1.3-13,2.7-16.8
			c1.6-4.3,6.1-11.6,11.6-21.9c6-7.6,13.4-15.3,21.3-22c8.5-7.2,17.8-13.3,28.4-16.6c-11.1,1.7-21.3,6.5-30.8,12.4
			c-3,1.9-6,3.9-9,6.1c12.6-28.5,25-70.3,19.9-125.8c0,0-1.4,37.3-9.5,71.4c-1.3-5.5-3.1-10.8-5.3-15.9
			c-5.3-12.2-8.9-17.6-16.3-28.1c6.2,11.3,9.1,17,13,29.6c7.8,26.8,2.7,35.8-1.5,45c-12.5,27.1-27.7,46.7-34.2,62.6
			c-2.4-5.2-4.9-10.3-7.4-15.4c-5.4-10.9-10.9-21.6-16.6-32.3c-0.9-1.7-1.9-3.4-2.8-5.2c-0.7-2.3-1.7-5.5-2.9-12.9
			c-0.6-3.8-1.1-7.6-1.5-11.4c-0.9-9.9-0.9-15.3-0.8-23.2c-0.9,8.1-1.3,13.4-1.3,23.3c0,3.9,0.2,7.8,0.5,11.8c0,0.6,0.1,1.3,0.2,1.9
			c0-0.1-0.1-0.1-0.1-0.2c-3-5.2-6-10.4-9.2-15.5c-3.2-5.1-6.4-10.1-9.8-15c-3.4-4.9-7-9.6-10.8-14c3.6,4.7,6.8,9.6,9.9,14.7
			c3.1,5.1,6,10.3,8.8,15.6c2.8,5.3,5.5,10.7,8.2,16.1c2.7,5.4,5.2,10.9,7.8,16.3c0.3,0.7,0.6,1.4,1,2.1c-1.7-0.5-3.3-1-6.1-1.7
			c-13-3.3-23.7-4.2-33.5-4.9c8.9,1.6,19.6,3.6,32.6,8.4c3.1,1.1,6.6,2.6,9.6,4c3.8,8.4,7.4,16.8,10.9,25.3
			c2.3,5.6,4.6,11.2,6.8,16.8c1.1,2.8,2.2,5.6,3.3,8.5l0,0.1c0,0.7,0,1.4,0.1,2.1c0.4,5,1.3,17.1,2.4,32.5c-8.1-4.2-17.2-7.4-27-9.3
			c-10.9-2.1-18.9-1.8-35.7-2.4c-1.4-0.9-3.5-2.7-5.6-5.1c-5.2-5.9-8.9-13.7-10.3-23c0.6,9.4,3.6,17.9,8.6,24.8
			c0.8,1.1,1.6,2.1,2.4,3.1c-4.8-0.2-9.5-0.6-14.2-1.2c-5.1-0.7-10.3-1.6-15.3-3.1c-5-1.6-9.9-3.7-14.2-7.2
			c4.1,3.8,8.9,6.4,13.8,8.4c4.6,1.8,9.3,3.1,14.1,4.2c-1,0.2-1.9,0.3-2.9,0.5c-3.5,0.6-7,1.3-10.5,2.2c-3.5,0.9-6.9,1.8-10.3,3
			c-3.4,1.2-6.7,2.6-9.9,4.3c3.3-1.5,6.7-2.5,10.1-3.4c3.4-0.9,6.9-1.5,10.4-2.1c3.5-0.5,7-1,10.5-1.3c3.5-0.3,13.5-0.7,17-0.7l0,0
			c17.9,2.4,28.8,2.5,40.9,5.9c10.5,2.9,20,7.4,27.9,12.8c0.3,0.2,0.7,0.5,1,0.7c2.6,41.8,4.9,99-0.6,113.5
			c-8.2,21.6,41.4,13.8,41.4,13.8s-16.7-9.3-23.2-57.8c-3.8-28.2-8.1-64.7-8.4-92.3c0.2-0.5,0.5-1,0.7-1.5c0.8-1.7,1.6-3.3,2.5-4.9
			c1.8-3.2,3.7-6.4,5.9-9.4c4.2-6.1,9.1-11.6,14.4-16.7c8.3-8.2,21.2-17.1,36.1-23.4C604.5,1741.2,590.6,1748.6,581.1,1756.1z"/>
	</g>
	<g>
		<path class="st7" d="M923.3,1766.1c33.4,0.6,66.3-8.5,94.2-26.8c22.5-14.7,43.5-36.3,47.4-66.7c8.9-69.6-31.2-67.3-41-95.7
			c-9.8-28.4,19.3-41.1,6.7-92.8c-6.8-27.8-28.2-39.8-61.6-84.5c-33.4-44.6-73.8-67.5-103.3-50.9c-29.5,16.6-28.3,52.5-50.3,64.4
			c-21.9,11.9-55.7,53.5-42.8,132.7c12.9,79.1-74.2,49.6-40.1,141.2C757.6,1754.1,866.8,1765,923.3,1766.1z"/>
		<path class="st8" d="M883.6,1706.2c3.1,44,7.6,219.1,1.1,234.3c-9.8,22.7,41.8-5.6,41.8-5.6s-13.7-104.5-21.7-155.6
			c-3.5-22.7-10-91.1-10.1-97.1c0.3-0.5,0.5-1.1,0.8-1.6c0.9-1.8,2-3.5,3-5.2c2.1-3.4,4.5-6.7,7.1-9.9c5.1-6.4,10.9-12.2,17.3-17.6
			c12-10.3,28.4-19.1,43.5-24.6c-18.9,4.8-35.6,12.7-46.7,20.4c-7.2,4.8-13.9,10.3-20.1,16.5c-1.6,1.6-3.1,3.2-4.5,4.9
			c0.5-7.6,1.6-13.7,3.2-17.6c1.9-4.5,7.3-12.2,14-23c7-7.7,16-16,25.7-23.2c10.5-7.7,21.7-14,34.3-17.5c-13.2,1.8-25.4,6.7-37.1,13
			c-3.7,2-7.3,4.1-10.9,6.5c15.2-30,30.2-73.9,24-132.3c0,0-1.7,39.2-11.4,75.1c-1.6-5.8-3.8-11.4-6.3-16.7
			c-6.4-12.9-10.7-18.5-19.6-29.5c7.4,11.9,10.9,17.9,15.7,31.1c9.1,27.3,3.7,37-1.8,47.3c-15.1,28.5-33.4,49.1-41.2,65.8
			c-2.9-5.4-5.9-10.8-8.9-16.2c-6.5-11.4-13.1-22.8-20-33.9c-1.1-1.8-2.2-3.6-3.4-5.4c-1-3.1-1.2-3.3-2.2-7.7
			c-0.5-2-0.9-3.9-1.2-5.9c-0.7-4-1.4-8-1.8-12c-0.4-4-0.8-8.1-0.9-12.2c-0.2-4.3-0.1-9,0-12.2c-0.4,3.1-1,7.9-1.2,12.2
			c-0.3,4.1-0.4,8.2-0.4,12.3c0,4.1,0.2,8.2,0.5,12.4c0.1,0.7,0.1,1.4,0.2,2c0-0.1-0.1-0.1-0.1-0.2c-3.6-5.5-7.3-10.9-11.1-16.3
			c-3.8-5.3-7.7-10.6-11.8-15.8c-4.1-5.1-8.4-10.1-13-14.7c4.3,4.9,8.2,10.1,12,15.5c3.7,5.4,7.2,10.9,10.6,16.4
			c3.4,5.6,6.7,11.2,9.9,16.9c3.2,5.7,6.3,11.4,9.4,17.2c0.4,0.7,0.8,1.5,1.2,2.2c-6.9-1.9-13.7-3.2-20.8-4.3
			c-11.5-1.7-15.8-2-26.9-2.7c11,1.7,15.2,2.4,26.4,5.2c11.5,2.9,19.8,5.9,24.5,7.9c4.5,8.8,8.9,17.7,13.2,26.6
			c2.8,5.9,5.6,11.8,8.2,17.7c1.1,2.4,2.6,4.6,3.2,7.2C881,1665.7,883.6,1706.2,883.6,1706.2z"/>
	</g>
	<path class="st8" d="M2428.7,1087.9l33.3,66.8l35.5-65.6c10.5-24.1-6.1-51.7-32.4-52.9c-0.4,0-0.8,0-1.2,0c-0.4,0-0.8,0-1.2,0
		C2436.6,1036.4,2419,1063.5,2428.7,1087.9z M2446,1074.1c0.2-9.6,8.1-17.3,17.7-17.1c9.6,0.2,17.3,8.1,17.1,17.7
		c-0.2,9.6-8.1,17.3-17.7,17.1C2453.5,1091.7,2445.8,1083.8,2446,1074.1z"/>
	<path class="st7" d="M652.5,1908.9c0,0,2.9-48,44.7-43.6c0,0,56.9-90.7,116.4,37.3c0,0,53.8-29.1,73.6,34.1
		c0,0,33.1-61.7,80.2-41.3c47.1,20.4,63.2,76.6,63.2,76.6l-347.7,7.4L652.5,1908.9z"/>
	<g>
		<path class="st9" d="M1690.6,1001.2c-1.7,1.2-32.4,56.2-32.4,56.2l-41.2-36.2l40-66.7l33.5,18.8V1001.2z"/>
		<path class="st10" d="M1633.9,993c5.1,14.4,15.5,33.4,36.3,43c8.8-15.6,19.4-34.1,20.4-34.8v-28l-33.5-18.8L1633.9,993z"/>
		<path class="st11" d="M1259.8,1557c0,0-11.7-8.2-22.8,18.1c-11.1,26.3,3.8,36.8,3.8,36.8s19.2-14.2,19-16.9
			c-0.2-2.7-0.9-36.7-0.9-36.7L1259.8,1557z"/>
		<path class="st6" d="M1279,1547.5c0,0-9.4-5.8-20,10.8c-3.9,6.1-8,15.3-11.8,28.9c-14.2,50.6,0,50.6,0,50.6l23.8-10.1
			c0,0,22.8-58,21.4-62.8C1291,1560.3,1279,1547.5,1279,1547.5z"/>
		<path class="st12" d="M1479.1,1417.2h-395.7c-3.1,0-5.6,2.5-5.6,5.6v4.3c0,3.1,2.5,5.6,5.6,5.6h395.7c3.1,0,5.6-2.5,5.6-5.6v-4.3
			C1484.7,1419.7,1482.2,1417.2,1479.1,1417.2z"/>
		<rect x="1380.9" y="1425" class="st12" width="27.3" height="72.4"/>
		<path class="st12" d="M1188.9,1477.6h-9.1c-6.6,0-11.9-5.3-11.9-11.9v-54.9h32.9v54.9C1200.8,1472.3,1195.5,1477.6,1188.9,1477.6z
			"/>
		<path class="st12" d="M1196.2,1461.1c3.9,4.5,99.7,94.6,99.7,94.6l-8.1,11.1l-101.2-99.8L1196.2,1461.1z"/>
		<path class="st13" d="M2066,1627.4h5.4c11.2,0,20.2,9.1,20.2,20.2v26h-25c0,0-11.1-19.2-15.2-15.2
			C2047.5,1662.5,2066,1627.4,2066,1627.4z"/>
		
			<ellipse transform="matrix(0.7071 -0.7071 0.7071 0.7071 -875.8591 1533.6592)" class="st14" cx="1413.4" cy="1824.1" rx="146.7" ry="146.7"/>
		<path class="st15" d="M1479.5,1824.1c0,36.5-29.6,66.1-66.1,66.1s-66.1-29.6-66.1-66.1c0-36.5,29.6-66.1,66.1-66.1
			S1479.5,1787.6,1479.5,1824.1z"/>
		
			<ellipse transform="matrix(2.497684e-02 -0.9997 0.9997 2.497684e-02 232.6684 3886.7241)" class="st14" cx="2108.9" cy="1824.1" rx="146.7" ry="146.7"/>
		<path class="st15" d="M2175,1824.1c0,36.5-29.6,66.1-66.1,66.1c-36.5,0-66.1-29.6-66.1-66.1c0-36.5,29.6-66.1,66.1-66.1
			C2145.4,1758,2175,1787.6,2175,1824.1z"/>
		<path class="st12" d="M1588.5,1802.5h-346.6c-16.9,0-30.5-13.7-30.5-30.5v-31.4c0-16.9,13.7-30.5,30.5-30.5h346.6V1802.5z"/>
		<path class="st6" d="M1654.9,1537.1h-288.6c-11,0-19.9-8.9-19.9-19.9v-15.3c0-11,8.9-19.9,19.9-19.9h288.6
			c11,0,19.9,8.9,19.9,19.9v15.3C1674.8,1528.2,1665.9,1537.1,1654.9,1537.1z"/>
		<path class="st16" d="M1663.3,1531.9c0,0-26.3,14.5-47.5,75.2s-16.7,152.3,115.4,159.4h202.9l20.2-35.6c0,0-17.2-242.2-56.7-349.5
			h66.8c0,0,20.2,206.2,91,234c6.8,2.7,11.2,9.3,11.2,16.7v40.8l-107.3,138.7h-353.2c0,0-83,7.3-103.2-133.6l-239.5-3.7
			c-13.1-0.2-22.4-12.9-18.6-25.5c7.5-24.3,22.7-58.6,50.3-66.2C1338.9,1570.7,1663.3,1531.9,1663.3,1531.9z"/>
		<path class="st12" d="M1276.4,1590.5c0.3,0.5,0.7,1.1,1,1.6h344.1l3.5-8.1c18.9-41.5,38.3-52.2,38.3-52.2h-352.9
			C1280.3,1531.9,1261,1564.7,1276.4,1590.5z"/>
		<path class="st6" d="M1255.5,1710h257.1c27.6,0,47-27.2,38-53.3c-13.7-39.4-45.5-81.8-123.9-89c-101.2-9.4-162.4,71.5-186.7,116.4
			C1233.7,1695.8,1242.2,1710,1255.5,1710z"/>
		<path class="st6" d="M1959.4,1811.6l78.9-127.5c0,0,40.5-31.4,120.4-15.2c49.7,10.1,79,43.2,94.1,66.9c7,11-0.8,25.4-13.8,25.4
			h-121.6c-37.3,0-72.5,16.9-95.9,45.9l-3.1,3.9c-16.9,20.9-42.3,33.1-69.2,33.1l0,0c-18.2,0-35.7-6.9-48.9-19.4l-13.8-13H1959.4z"
			/>
		<path class="st6" d="M1969.9,1254.5c0-10.7-9.8-18.8-20.3-16.7c-44.8,8.8-91.8,44.7-91.8,87.6c0,42.9,47,78.8,91.8,87.6
			c10.5,2.1,20.3-6,20.3-16.7V1254.5z"/>
		<path class="st11" d="M1969.9,1254.8v141c29.9-9.5,51.6-37.5,51.6-70.5C2021.5,1292.3,1999.8,1264.3,1969.9,1254.8z"/>
		<rect x="1106.8" y="1206.8" class="st6" width="348.9" height="210.4"/>
		<rect x="1099.4" y="1180.4" class="st17" width="363.7" height="26.5"/>
		<path class="st18" d="M1191.5,1459.9c0,4-3.2,7.2-7.2,7.2c-4,0-7.2-3.2-7.2-7.2s3.2-7.2,7.2-7.2
			C1188.3,1452.7,1191.5,1455.9,1191.5,1459.9z"/>
		<path class="st16" d="M1493,1631.6h-166.1c-1.9,0-3.5-1.6-3.5-3.5v-2.7c0-1.9,1.6-3.5,3.5-3.5H1493c1.9,0,3.5,1.6,3.5,3.5v2.7
			C1496.4,1630,1494.9,1631.6,1493,1631.6z"/>
		<path class="st16" d="M1493,1655.9h-166.1c-1.9,0-3.5-1.6-3.5-3.5v-2.7c0-1.9,1.6-3.5,3.5-3.5H1493c1.9,0,3.5,1.6,3.5,3.5v2.7
			C1496.4,1654.4,1494.9,1655.9,1493,1655.9z"/>
		<polygon class="st9" points="1793.9,1639.2 1781.2,1775.4 1770.4,1795 1750.8,1780.8 1751.2,1635.7 		"/>
		<polygon class="st9" points="1867.5,1626.4 1861.2,1775.4 1850.3,1795 1830.7,1780.8 1831.1,1635.7 		"/>
		<g>
			<path class="st19" d="M1911.1,1804.3l-84.6,0.3c-0.7,0-1.2-0.5-1.2-1.2l0-6.4c0-0.7,0.5-1.2,1.2-1.2l84.6-0.3
				c0.7,0,1.2,0.5,1.2,1.2l0,6.4C1912.3,1803.7,1911.8,1804.3,1911.1,1804.3z"/>
			<path class="st6" d="M1829.2,1769.2l-2.8,24.3c-0.3,3,1.3,5.7,3.5,5.7l76.6-0.3c2,0,4-1.3,5-3.6c1.1-2.4,1.3-6-2.2-10.8
				c-6.9-9.7-29.4-12-40.5-20.2l-35.7,0.1C1831.2,1764.5,1829.6,1766.5,1829.2,1769.2z"/>
			<g>
				<path class="st19" d="M1863.6,1778.5L1863.6,1778.5c-0.6-0.3-0.8-1.3-0.4-2c1.5-3.3,6.2-11.5,15.7-9.8c0.6,0.1,0.9,0.8,0.8,1.6
					l0,0c-0.1,0.7-0.6,1.2-1.1,1.1c-8.6-1.4-12.6,5.7-13.8,8.5C1864.6,1778.6,1864,1778.8,1863.6,1778.5z"/>
			</g>
			<g>
				<path class="st19" d="M1871.5,1781.6L1871.5,1781.6c-0.6-0.3-0.8-1.3-0.4-2c1.5-3.3,6.2-11.5,15.7-9.8c0.6,0.1,0.9,0.8,0.8,1.6
					l0,0c-0.1,0.7-0.6,1.2-1.1,1.1c-8.6-1.4-12.6,5.7-13.8,8.5C1872.5,1781.7,1872,1781.9,1871.5,1781.6z"/>
			</g>
			<g>
				<path class="st19" d="M1878.9,1784.5L1878.9,1784.5c-0.6-0.3-0.8-1.3-0.4-2c1.5-3.3,6.2-11.5,15.7-9.8c0.6,0.1,0.9,0.8,0.8,1.6
					l0,0c-0.1,0.7-0.6,1.2-1.1,1.1c-8.6-1.4-12.6,5.7-13.8,8.5C1879.9,1784.6,1879.4,1784.8,1878.9,1784.5z"/>
			</g>
			<path class="st20" d="M1850.4,1799.2c-6.1-19.6-16.5-21.8-22.2-21.3l-1.8,15.7c-0.3,3,1.3,5.7,3.5,5.7L1850.4,1799.2z"/>
		</g>
		<path class="st16" d="M1493,1680.3h-166.1c-1.9,0-3.5-1.6-3.5-3.5v-2.7c0-1.9,1.6-3.5,3.5-3.5H1493c1.9,0,3.5,1.6,3.5,3.5v2.7
			C1496.4,1678.7,1494.9,1680.3,1493,1680.3z"/>
		<path class="st18" d="M1813.8,1438.7c10,0.8,51.6,17.7,57,47.8c5.4,30.1,0,263.6,0,263.6h-46.2c0,0-37-185-37-190.4
			S1813.8,1438.7,1813.8,1438.7z"/>
		<path class="st16" d="M1496.3,1371.6c0.8,2.3-10.2,105.6,95.1,114.1s166.2,22.4,166.2,22.4s-14.6,233.5-13.9,245.1
			c0,0,36.2,6.2,51.6,3.9c0,0,82.5-259,58.6-312.2c-23.9-53.2-214.3-73.2-214.3-73.2H1496.3z"/>
		<path class="st21" d="M1671.5,1185.9c0,0,1.1,50.3,4.4,54.9c3.3,4.7,162.9,65.6,162.9,65.6l-26.2,29.6l-117.5-33.6
			c0,0-84.2-30.2-83.3-32.4c0.9-2.2,5.5-33.1,9.7-45.2c4.2-12.1,19.9-39.5,19.9-39.5L1671.5,1185.9z"/>
		<path class="st22" d="M1612.7,1010.5c0,0-106.6,38.7-118.7,249.1l-5.2,119.7c0,0,121.4,52,190.8,6.9c0,0,7-213.6,14.3-291.6
			c1.2-13.2-4.1-26.1-14.3-34.5C1656.3,1040.8,1616.6,1008.7,1612.7,1010.5z"/>
		<path class="st9" d="M1575.7,1160c0,0-26.1,107.7,10.4,137.3c22.7,18.5,234.6,54.7,234.6,54.7l13.7-33c0,0-168.7-60.2-178.8-67.2
			c-10.1-7,6.8-99.1,6.8-99.1L1575.7,1160z"/>
		<path class="st23" d="M1658.1,1049.5c-9.5-8.5-23.2-10.7-35-5.7c-16.3,6.9-39.6,26.4-52.2,81.4l-10.7,47.4
			c0,0,79.2,19.4,103.5,18.3l12.4-73.3C1676.1,1117.6,1683.2,1071.8,1658.1,1049.5z"/>
		<path class="st16" d="M1398.8,1180.4H1334l-121.6,236.8c10.6,0,43.6,0,64.9,0L1398.8,1180.4L1398.8,1180.4z"/>
		<g>
			<path class="st13" d="M1317.2,1330l-43.5-22.3c-6.7-3.4-9.3-11.6-5.9-18.3l12.8-24.9c3.4-6.7,11.6-9.3,18.3-5.9l43.5,22.3
				c6.7,3.4,9.3,11.6,5.9,18.3l-12.8,24.9C1332.1,1330.8,1323.9,1333.5,1317.2,1330z M1295.3,1265.7c-2.8-1.4-6.2-0.3-7.6,2.4
				l-12.8,24.9c-1.4,2.8-0.3,6.2,2.4,7.6l43.5,22.3c2.8,1.4,6.2,0.3,7.6-2.4l12.8-24.9c1.4-2.8,0.3-6.2-2.4-7.6L1295.3,1265.7z"/>
		</g>
		<path class="st9" d="M1647.2,931.3c5.4,11.7,1,24.8-9.7,29.3c-10.7,4.5-23.8-1.3-29.2-13c-5.4-11.7-1-24.8,9.7-29.3
			C1628.7,913.8,1641.8,919.6,1647.2,931.3z"/>
		<g>
			<path class="st19" d="M1829.2,1804.3l-84.6,0.3c-0.7,0-1.2-0.5-1.2-1.2l0-6.4c0-0.7,0.5-1.2,1.2-1.2l84.6-0.3
				c0.7,0,1.2,0.5,1.2,1.2l0,6.4C1830.4,1803.7,1829.9,1804.3,1829.2,1804.3z"/>
			<path class="st6" d="M1747.3,1769.2l-2.8,24.3c-0.3,3,1.3,5.7,3.5,5.7l76.6-0.3c2,0,4-1.3,5-3.6c1.1-2.4,1.3-6-2.2-10.8
				c-6.9-9.7-29.4-12-40.5-20.2l-35.7,0.1C1749.3,1764.5,1747.6,1766.5,1747.3,1769.2z"/>
			<g>
				<path class="st19" d="M1781.7,1778.5L1781.7,1778.5c-0.6-0.3-0.8-1.3-0.4-2c1.5-3.3,6.2-11.5,15.7-9.8c0.6,0.1,0.9,0.8,0.8,1.6
					l0,0c-0.1,0.7-0.6,1.2-1.1,1.1c-8.6-1.4-12.6,5.7-13.8,8.5C1782.7,1778.6,1782.1,1778.8,1781.7,1778.5z"/>
			</g>
			<g>
				<path class="st19" d="M1789.6,1781.6L1789.6,1781.6c-0.6-0.3-0.8-1.3-0.4-2c1.5-3.3,6.2-11.5,15.7-9.8c0.6,0.1,0.9,0.8,0.8,1.6
					l0,0c-0.1,0.7-0.6,1.2-1.1,1.1c-8.6-1.4-12.6,5.7-13.8,8.5C1790.6,1781.7,1790.1,1781.9,1789.6,1781.6z"/>
			</g>
			<g>
				<path class="st19" d="M1797,1784.5L1797,1784.5c-0.6-0.3-0.8-1.3-0.4-2c1.5-3.3,6.2-11.5,15.7-9.8c0.6,0.1,0.9,0.8,0.8,1.6l0,0
					c-0.1,0.7-0.6,1.2-1.1,1.1c-8.6-1.4-12.6,5.7-13.8,8.5C1798,1784.6,1797.5,1784.8,1797,1784.5z"/>
			</g>
			<path class="st20" d="M1768.5,1799.2c-6.1-19.6-16.5-21.8-22.2-21.3l-1.8,15.7c-0.3,3,1.3,5.7,3.5,5.7L1768.5,1799.2z"/>
		</g>
		<path class="st12" d="M1978.6,1847.4h-427.7c-10.1,0-18.3-8.2-18.3-18.3v-14.1c0-10.1,8.2-18.3,18.3-18.3h427.7
			c10.1,0,18.3,8.2,18.3,18.3v14.1C1996.8,1839.2,1988.7,1847.4,1978.6,1847.4z"/>
		<path class="st24" d="M1335,1972.1h-283.4c0,0-129.6-40.1,0-38.7c0,0-76.2-56.7,39.1-43.2c115.4,13.5,126.2,47.9,126.2,47.9
			S1239.8,1897.5,1335,1972.1z"/>
		<path class="st24" d="M1706.9,1971.3l184.3-1.3c0,0-100.7-58-114.9-32.7C1776.3,1937.3,1597.9,1900.4,1706.9,1971.3z"/>
		<path class="st24" d="M2285.4,1971.5h-323.2c0,0-28.9-34.7,34.7-22.1c0,0-41.2-53.1,54.1-31.8l57.9,19.4c0,0-94.6-119.6,11.6-78.1
			C2226.7,1900.3,2285.4,1971.5,2285.4,1971.5z"/>
		<path class="st24" d="M1523.8,1971.3h-85.4c0,0-11.1-24.3,20-12.1C1458.4,1959.2,1416.5,1877.5,1523.8,1971.3z"/>
		<path class="st11" d="M1728.3,982.6l-4.2,16.3c0,0-36.6-29.6-36.3-30.2c0.3-0.6,6.6-11.1,9.4-10.3c2.7,0.9,25.6,9.7,25.6,10.3
			C1722.8,969.3,1728.3,982.6,1728.3,982.6z"/>
		<path class="st9" d="M1702.7,971.3c11.1,10.8,22,13.1,26.9,13.5c1.6-5.6,2.6-9.7,2.6-9.7s12.3-3.8,16.2-8.2c0,0-12.4-17-12.6-25
			c-0.2-8,12.2-55.8-22.2-82.9c-34.4-27.1-54.9,21.5-54.9,21.5l-14.6,50.3l-20,30.4c0,0,4.8,27.5,32.1,46.9
			c27.3,19.4,57.5,12,62.6,9.6c1.3-0.6,4.9-12.5,8.1-23.5C1709.2,988.1,1702.7,971.3,1702.7,971.3z"/>
		<path class="st16" d="M1709.1,940.5c1.5,2.5,4.8,3.4,7.4,2c2.6-1.4,3.6-4.6,2.1-7.1c-1.5-2.5-4.8-3.4-7.4-2
			C1708.6,934.8,1707.7,938,1709.1,940.5z"/>
		<path class="st16" d="M1701.3,930.9c1.9-1.6,3.8-3,5.7-4.2c1.9-1.2,4-2.1,6.1-2.7c2.1-0.6,4.3-1,6.5-0.9l0.9,0c0.3,0,0.6,0,0.9,0
			l1.7,0.1c1.2,0.1,2.3,0.3,3.6,0.3c-1-0.7-2-1.4-3.1-1.9c-1.2-0.4-2.3-1-3.6-1.1c-2.5-0.6-5.2-0.4-7.8,0.4
			c-2.6,0.7-4.9,2.1-6.8,3.9C1703.6,926.4,1702.1,928.5,1701.3,930.9z"/>
		<path class="st17" d="M1664.4,904.1c0,0-12.1,10.2-15.1,57.3c-2.3,36.5-32.9,42.4-32.3,42.2c0.6-0.2,8.6-80.2,10.1-82.9
			c1.5-2.7,11.8-33.1,13.4-33.9c1.6-0.8,22.4,12.8,23.6,13.2C1665.3,900.4,1664.4,904.1,1664.4,904.1z"/>
		<path class="st6" d="M1761.3,870.7c0,0-12.3-80.8-116-76.4c-103.7,4.4-100.3,124.6-100.3,124.6s-4.2,87.1,57.9,87.1
			c0,0,42,2.7,42-49.7c0-50.7,15.4-50.7,15.4-50.7L1761.3,870.7z"/>
		<path class="st25" d="M1567.7,836c-24,36.2-22.6,82.7-22.6,82.7s-4.2,87.1,57.9,87.1c0,0,40.9,2.6,42-47.7
			C1587.9,938,1569.6,888,1567.7,836z"/>
		<path class="st17" d="M1613.1,973.2c0,6.5-5.3,11.8-11.8,11.8c-6.5,0-11.8-5.3-11.8-11.8c0-6.5,5.3-11.8,11.8-11.8
			C1607.8,961.4,1613.1,966.7,1613.1,973.2z"/>
		<path class="st14" d="M1660.3,905.5c3.1-1.1,82.2-7.2,119.3-10c6.3-0.5,8.6-8.7,3.4-12.3l-21.7-15.1L1660.3,905.5z"/>
		<path class="st12" d="M1660.3,905.5c3.5-1.2,80.7-26.8,103-34.1c3.2-1.1,4.8-4.6,3.5-7.7l-3-7c-1.3-3.1-5.1-4.4-8-2.8
			L1660.3,905.5z"/>
		<path class="st9" d="M1814.9,1315.6c0,0,26.2-15.9,37.6-15.9c11.4,0,35.3,6.8,35.3,18.2s-6.8,18.2-6.8,18.2l-23.1,19.9
			c0,0-11,8.5-15.6,4s-18.2,1.1-40.8-11.3c-22.1-12.2-1.4-19.4,2-22.8S1814.9,1315.6,1814.9,1315.6z"/>
		<path class="st14" d="M1887.5,1332.4c0,13.4-10.8,24.2-24.2,24.2c-13.4,0-24.2-10.8-24.2-24.2c0-13.4,10.8-24.2,24.2-24.2
			C1876.6,1308.2,1887.5,1319,1887.5,1332.4z"/>
	</g>
	<path class="st8" d="M2978.2,2000H443.9c-5.8,0-10.5-4.7-10.5-10.5v-8.1c0-5.8,4.7-10.5,10.5-10.5h2534.3c5.8,0,10.5,4.7,10.5,10.5
		v8.1C2988.7,1995.3,2984,2000,2978.2,2000z"/>
	<g>
		<g>
			<g>
				<path class="st7" d="M2489.3,1814.2c-27.5,0.5-54.7-7-77.8-22.1c-18.5-12.1-35.9-29.9-39.1-55.1c-7.3-57.5,25.8-55.6,33.9-79
					s-16-33.9-5.6-76.6c5.6-22.9,23.3-32.9,50.8-69.7s60.9-55.7,85.3-42c24.4,13.7,23.4,43.3,41.5,53.1
					c18.1,9.8,45.9,44.2,35.3,109.5c-10.6,65.3,61.2,41,33.1,116.5C2626.1,1804.3,2536,1813.3,2489.3,1814.2z"/>
			</g>
			<path class="st8" d="M2522.1,1764.8c-2.6,36.3-6.3,180.8-0.9,193.4c8.1,18.7-34.5-4.6-34.5-4.6s11.3-86.3,17.9-128.4
				c2.9-18.8,8.3-75.2,8.3-80.1c-0.2-0.4-0.5-0.9-0.7-1.3c-9.5-17.9-29.3-36.6-58.5-47.3c22.4,5.7,43.4,17,58.9,34.4
				c-0.4-6.3-1.3-11.3-2.6-14.6c-4.3-10.3-11.8-22.7-32.7-38.1c-4.3-3.1-8.7-6-13.4-8.5c-2.3-1.2-4.8-2.4-7.2-3.4
				c-2.5-1-5-1.9-7.6-2.6c2.7,0.4,5.3,0.9,8,1.5c2.6,0.7,5.2,1.5,7.8,2.4c5.1,1.9,10.1,4.2,14.9,6.8c3,1.7,6,3.4,9,5.3
				c-12.6-24.8-24.9-61-19.8-109.2c0,0,1.4,32.4,9.4,62c1.3-4.8,3.1-9.4,5.2-13.8c4.7-9.5,7.4-12.9,11.6-18.7
				c1.5-1.9,3.1-3.8,4.6-5.7c-1.3,2.1-2.6,4.1-3.9,6.2c-3.4,6.1-5.6,9.8-9.1,19.5c-1.5,4.5-2.7,9.1-3.4,13.7
				c-1,7.8-0.5,13.4-0.5,13.4c1.6,4.2,3.3,8.2,5.3,11.9c12.5,23.6,27.6,40.5,34,54.3c2.4-4.5,4.9-8.9,7.3-13.4
				c5.3-9.4,10.8-18.8,16.5-28c0.9-1.5,1.9-3,2.8-4.5c2.2-6.6,3.6-14.4,4.3-21.1c0.9-8.5,0.9-13.1,0.8-20.1
				c0.9,6.9,1.3,11.6,1.3,20.3c0,3.4-0.2,6.8-0.5,10.2c0,0.6-0.1,1.1-0.2,1.7c0,0,0.1-0.1,0.1-0.1c3-4.5,6-9,9.1-13.4
				c3.1-4.4,6.4-8.8,9.7-13c3.4-4.2,6.9-8.3,10.8-12.1c-3.6,4.1-6.8,8.4-9.9,12.8c-3.1,4.4-6,9-8.8,13.6c-2.8,4.6-5.5,9.2-8.2,13.9
				c-2.6,4.7-5.2,9.4-7.7,14.2c-0.3,0.6-0.6,1.2-1,1.8c1.1-0.3,2.7-0.7,6.1-1.5c13-2.9,23.7-3.6,33.3-4.2
				c-8.9,1.4-19.5,3.1-32.5,7.3c-3.2,1-6.5,2.2-9.6,3.5c-3.7,7.3-7.3,14.6-10.9,21.9c-2.3,4.9-4.6,9.7-6.8,14.6
				c-0.9,2-2.2,3.8-2.6,5.9C2524.3,1731.3,2522.1,1764.8,2522.1,1764.8z"/>
		</g>
	</g>
	<path class="st8" d="M465.2,1971.3c0,0,24.9-37.6,70.2-29.5c0,0,25-53,94.2-53.6c70.2-0.6,83.5,48.3,83.5,48.3s20-16.9,65.3,0.5
		c45.3,17.3,61.3,48.6,61.3,48.6L465.2,1971.3z"/>
	<path class="st7" d="M2784.7,1908.9c0,0-2.9-48-44.7-43.6c0,0-56.9-90.7-116.4,37.3c0,0-53.8-29.1-73.6,34.1
		c0,0-33.1-61.7-80.2-41.3s-63.2,76.6-63.2,76.6l347.7,7.4L2784.7,1908.9z"/>
	<path class="st8" d="M2972,1971.3c0,0-24.9-37.6-70.2-29.5c0,0-25-53-94.2-53.6c-70.2-0.6-83.5,48.3-83.5,48.3s-20-16.9-65.3,0.5
		c-45.3,17.3-61.3,48.6-61.3,48.6L2972,1971.3z"/>
	<path class="st7" d="M2702.2,1691.2c-26.1-13.4-48-35.6-55.9-62.7c-7.6-26.2-1.7-54,4.7-80.4c2.8-11.6,5.6-24,1.1-35.1
		c-2.8-6.9-8.2-12.5-13.1-18.3c-42.2-49.7-51.8-117.9-46.5-181.5c1.5-17.7,4.1-35.7,12.9-51.3c8.8-15.6,24.8-28.6,43.4-29.8
		c28.7-1.9,56.1,23.5,83.5,15c19.6-6.1,29.5-27.2,47.3-37.2c14.9-8.4,33.4-7.9,50.7-7.1c5.5,0.2,11,0.5,16.1,2.5
		c11.5,4.5,17.3,16.5,20.9,27.7c5.9,18.2,8.8,37.1,14.7,55.3c5.9,18.2,15.3,36.1,31.3,47.6c12.8,9.3,28.6,13.7,43.1,20.5
		c35.6,16.8,61.6,47.9,80.8,81c5.8,9.9,11.1,20.1,14,31.1c9.2,34.4-8.6,73.8-41.3,91.1c-12.2,6.4-25.9,10-38,16.5
		c-27.8,14.9-44,43.2-59.9,69.4c-15.9,26.3-35.1,53.6-65,64.1C2806.1,1723.7,2739.4,1710.2,2702.2,1691.2z"/>
	<path class="st8" d="M2990.9,1516.9c-6.5-0.9-13-1.4-19.5-1.7c-6.5-0.3-13.1-0.2-19.6,0c-1.8,0.1-3.6,0.1-5.4,0.2
		c8.3-4,16.5-8.4,24.3-13.9c8.4-5.9,16.4-13,22.7-22.1c-6.8,8.5-15,14.8-23.6,19.8c-8.6,5.1-17.7,9-26.8,12.3
		c-8.4,3.1-16.9,5.7-25.4,8.1c1.3-2.3,2.5-4.6,3.5-7c2.4-5.3,4.4-10.9,5.8-16.7c1.5-5.8,2.4-11.7,2.8-17.6
		c0.4-5.9,0.3-11.9-0.2-17.8c0,5.9-0.4,11.8-1.3,17.5c-0.9,5.7-2.3,11.3-4.1,16.6c-1.8,5.3-4.1,10.4-6.8,15
		c-1.3,2.3-2.7,4.6-4.3,6.7c-1.2,1.7-3.4,4.8-5,5.7c-7,1.9-14.1,3.6-21.1,5.4c-22.5,5.8-54.1,13.2-88.9,43
		c-1.5-17.4-3-37.3-4.1-51.2c-0.9-11.9-0.2-23.8,2.1-35.4c0-0.1,0-0.1,0-0.2c2.4-11.9,4.9-23.9,7.5-35.8c4-18,8.1-36,12.5-53.9
		c8.9-37.6,6.8-42.5,7.6-51.1c0.2-2.3,0.2-4.7,0-7c0-0.1,0-0.2,0-0.4c-0.6-7.8-1.5-15.5-2.6-23.2c-2.8-19.5-5.3-29.8-9.1-45.2
		c2.6,15.8,4.1,26.3,5.3,45.7c0.4,7.7,0.6,15.3,0.6,23c0,3.8-0.1,7.6-0.3,11.4c-0.1,1.9-0.2,3.8-0.3,5.7c-0.1,0.9-0.1,1.9-0.2,2.8
		c0,0.6-3.2,14-4.4,17.8c-7.3,23.1-14.2,46.4-20.8,69.9c-3.1,11-6.1,22-9,33.1c0,0-1.5,5.1-3,14.9c-0.7-2.1-6.4-18-9.2-24.5
		c-14-33-28.2-61.2-51.5-95c-9-13-10.1-14.2-22-29.6c14.7,21.7,10.4,15.1,20.4,31.2c21.3,35.1,34,64.3,46.1,97.5
		c4.4,13.2,6.7,19.8,11.1,37.2c0.5,2.1,1.1,4.2,1.5,6.3c0.3,1.2,0.5,2.4,0.8,3.5c-1,16.3-0.3,32.7,1.6,48.9
		c0.8,6.6,8.5,125.3,9.4,168.8c2,97.7-15.3,208.3-15.3,208.3s103.4,32.2,82.4-6.7c-14.1-26.1-47.9-262-55.3-344.9
		c0.6-0.6,1.1-1.2,1.7-1.8c31.4-34,64.1-45.1,87.3-53.3c10.7-3.7,21.5-7.4,32.2-11.4l0,0c6.3-1.3,24.6-4.6,31-5.5
		c6.4-0.8,12.9-1.4,19.3-1.8c6.5-0.3,12.9-0.4,19.4-0.1c6.5,0.4,12.9,1.1,19.3,2.6C3003.9,1519.2,2997.4,1517.9,2990.9,1516.9z"/>
</g>
</svg>
