<?xml version="1.0" encoding="utf-8"?>
<!-- Generator: Adobe Illustrator 24.0.1, SVG Export Plug-In . SVG Version: 6.00 Build 0)  -->
<svg version="1.1" id="Capa_1" xmlns="http://www.w3.org/2000/svg" xmlns:xlink="http://www.w3.org/1999/xlink" x="0px" y="0px"
	 viewBox="0 0 512 512" style="enable-background:new 0 0 512 512;" xml:space="preserve">
<style type="text/css">
	.st0{fill:#F4A640;}
</style>
<g>
	<g>
		<g>
			<path class="st0" d="M256,26.8L256,26.8l71,143.8l3.5,7.1l7.8,1.1L497,201.9l-114.9,112l-5.6,5.5l1.3,7.8l27.1,158.1l-142-74.6
				l-7-3.7l-7,3.7l-142,74.6l27.1-158.1l1.3-7.8l-5.6-5.5L15,201.9l158.7-23.1l7.8-1.1l3.5-7.1L256,26.8C256,26.8,256,26.8,256,26.8
				 M256,11.8c-5.7,0-10.9,3.2-13.5,8.4l-71,143.8L12.8,187c-5.6,0.8-10.3,4.8-12.1,10.2c-1.8,5.4-0.3,11.4,3.8,15.4l114.8,112
				L92.3,482.7c-1,5.6,1.3,11.3,6,14.7c2.6,1.9,5.7,2.9,8.8,2.9c2.4,0,4.8-0.6,7-1.7l142-74.6l142,74.6c2.2,1.2,4.6,1.7,7,1.7
				c3.1,0,6.2-1,8.8-2.9c4.6-3.4,6.9-9,6-14.7l-27.1-158.1l114.9-112c4.1-4,5.6-9.9,3.8-15.4c-1.8-5.4-6.5-9.4-12.1-10.2L340.4,164
				l-71-143.8C266.9,15,261.7,11.8,256,11.8L256,11.8z"/>
		</g>
	</g>
</g>
</svg>
